# xmcd CD database file
#
# Track frame offsets:
#	150
#	22125
#	41588
#	63564
#
# Disc length: 1103 seconds
#
# Revision: 0
# Processed by: cddbd v1.5.1PL0 Copyright (c) Steve Scherf et al.
# Submitted via: CDex 1.50beta10
#
DISCID=33044d04
DTITLE=CooRie - 暁に咲く詩
DYEAR=2005
DGENRE=Anime
TTITLE0=暁に咲く詩
TTITLE1=かくれんぼ同盟
TTITLE2=暁に咲く詩 (Off Vocal)
TTITLE3=かくれんぼ同盟 (Off Vocal)
EXTD=YEAR: 2005
EXTT0=
EXTT1=
EXTT2=
EXTT3=
PLAYORDER=
